{"title":"Russian Institute 11","uid":6965978,"size":856735369,"categoryP":"porn","categoryS":"movies","magnet":"?xt=urn:btih:46adce3616d090b6b177e2cce44f593afda3df83&amp;dn=Russian+Institute+11&amp;tr=udp%3A%2F%2Ftracker.openbittorrent.com%3A80&amp;tr=udp%3A%2F%2Fopen.demonii.com%3A1337&amp;tr=udp%3A%2F%2Ftracker.coppersurfer.tk%3A6969&amp;tr=udp%3A%2F%2Fexodus.desync.com%3A6969","seeders":0,"leechers":1,"uploader":"tigris1968","files":87,"time":1326924280,"description":"Russian Institute 11\n\nMarc Dorcel\n\nCategory \tAll Sex, Foreign, Schoolgirls\nDirector \tHerve Bodilis\nStarring \tAletta Ocean, Tarra White, Angelica Heart, Jasmine Rouge, Caty Cambel, Kathy Sweet\n\nThe &quot;Russian Institute&quot;. A luxury boarding school for young heiresses of the Moscow upper middle class where nothing is neglected to complete their education.\n\nLast innovation, the opening of a &quot;Pony Club&quot; where the young heiresses practice another kind of riding with their instructions' complicity. Thus, the pretty Natalia catches her girlfriend in the straw with two males and joins them for bold double penetration.\n\nMischievous, the girls tease men around and give up riding caps and jodhpurs to have their pussies and anus smashed, often both at the same time. And when the men are exhausted, some of the girls use their tongues, their fingers or huge dildos to satisfy their libido.\n\nfrond\n &lt;a href=&quot;\nhttp://bayimg.com/naMbhAadA&quot; rel=&quot;nofollow&quot; target=&quot;_NEW&quot;&gt;\nhttp://bayimg.com/naMbhAadA&lt;/a&gt;\n\nback\n &lt;a href=&quot;\nhttp://bayimg.com/NAMbmaADA&quot; rel=&quot;nofollow&quot; target=&quot;_NEW&quot;&gt;\nhttp://bayimg.com/NAMbmaADA&lt;/a&gt;\n\nscreen\n &lt;a href=&quot;\nhttp://bayimg.com/namBpAaDa&quot; rel=&quot;nofollow&quot; target=&quot;_NEW&quot;&gt;\nhttp://bayimg.com/namBpAaDa&lt;/a&gt;\n\nGeneral\nComplete name                    : C:\\Downloads\\Russian Institute 11\\dvd\\Russian Institute 11.avi\nFormat                           : AVI\nFormat/Info                      : Audio Video Interleave\nFile size                        : 806 MiB\nDuration                         : 1h 24mn\nOverall bit rate                 : 1 335 Kbps\nWriting application              : MEncoder SVN-r30881(20100311-gcc4.3.3)\nWriting library                  : MPlayer\n\nVideo\nID                               : 0\nFormat                           : MPEG-4 Visual\nFormat profile                   : Advanced Simple@L5\nFormat settings, BVOP            : 2\nFormat settings, QPel            : No\nFormat settings, GMC             : No warppoints\nFormat settings, Matrix          : Default (H.263)\nCodec ID                         : XVID\nCodec ID/Hint                    : XviD\nDuration                         : 1h 24mn\nBit rate                         : 1 194 Kbps\nWidth                            : 720 pixels\nHeight                           : 480 pixels\nDisplay aspect ratio             : 3:2\nFrame rate                       : 25.000 fps\nStandard                         : NTSC\nColor space                      : YUV\nChroma subsampling               : 4:2:0\nBit depth                        : 8 bits\nScan type                        : Progressive\nCompression mode                 : Lossy\nBits/(Pixel*Frame)               : 0.138\nStream size                      : 722 MiB (89%)\nWriting library                  : XviD 1.2.1 (UTC 2008-12-04)\n\nAudio\nID                               : 1\nFormat                           : MPEG Audio\nFormat version                   : Version 1\nFormat profile                   : Layer 3\nMode                             : Joint stereo\nMode extension                   : MS Stereo\nCodec ID                         : 55\nCodec ID/Hint                    : MP3\nDuration                         : 1h 24mn\nBit rate mode                    : Constant\nBit rate                         : 128 Kbps\nChannel(s)                       : 2 channels\nSampling rate                    : 44.1 KHz\nCompression mode                 : Lossy\nDelay relative to video          : 40ms\nStream size                      : 77.3 MiB (10%)\nAlignment                        : Aligned on interleaves\nInterleave, duration             : 26 ms (0.65 video frame)\nInterleave, preload duration     : 522 ms\nWriting library                  : LAME3.98\n\n","torrent":{"xt":"urn:btih:46adce3616d090b6b177e2cce44f593afda3df83","amp;dn":"Russian+Institute+11","amp;tr":["udp%3A%2F%2Ftracker.openbittorrent.com%3A80","udp%3A%2F%2Fopen.demonii.com%3A1337","udp%3A%2F%2Ftracker.coppersurfer.tk%3A6969","udp%3A%2F%2Fexodus.desync.com%3A6969"],"infoHash":"46adce3616d090b6b177e2cce44f593afda3df83","infoHashBuffer":{"type":"Buffer","data":[70,173,206,54,22,208,144,182,177,119,226,204,228,79,89,58,253,163,223,131]},"announce":[],"urlList":[]}}